<svg width="155" height="155" viewBox="0 0 155 155" fill="none" xmlns="http://www.w3.org/2000/svg">
<rect width="155" height="155" rx="77.5" transform="matrix(-1 0 0 1 155 0)" fill="#FF6B6B"/>
<g filter="url(#filter0_d_109_17)">
<path d="M44.744 51.848C42.9947 54.3653 40.7333 56.9893 37.96 59.72C35.2293 62.408 32.1787 64.9893 28.808 67.464C25.48 69.9387 22.0027 72.136 18.376 74.056C18.1627 73.672 17.8853 73.2453 17.544 72.776C17.2027 72.3067 16.84 71.8587 16.456 71.432C16.1147 70.9627 15.752 70.5573 15.368 70.216C19.08 68.3813 22.6427 66.184 26.056 63.624C29.512 61.0213 32.6267 58.2907 35.4 55.432C38.1733 52.5733 40.392 49.8213 42.056 47.176H46.92C48.6267 49.4373 50.568 51.6773 52.744 53.896C54.92 56.1147 57.224 58.2053 59.656 60.168C62.1307 62.088 64.648 63.8373 67.208 65.416C69.8107 66.9947 72.3707 68.3387 74.888 69.448C74.2907 70.0453 73.7147 70.728 73.16 71.496C72.6053 72.264 72.1147 73.0107 71.688 73.736C69.256 72.456 66.76 70.984 64.2 69.32C61.64 67.6133 59.144 65.8 56.712 63.88C54.3227 61.9173 52.104 59.9333 50.056 57.928C48.008 55.88 46.2373 53.8533 44.744 51.848ZM28.936 66.76H61V71.048H28.936V66.76ZM20.616 79.624H69.32V83.848H20.616V79.624ZM17.672 99.848H72.392V104.072H17.672V99.848ZM42.184 68.424H47.24V102.024H42.184V68.424ZM25.928 87.112L29.832 85.576C30.728 86.728 31.5813 88.008 32.392 89.416C33.2453 90.7813 33.992 92.1467 34.632 93.512C35.272 94.8347 35.72 96.0293 35.976 97.096L31.816 98.888C31.56 97.8213 31.1333 96.6053 30.536 95.24C29.9387 93.8747 29.2347 92.488 28.424 91.08C27.6133 89.672 26.7813 88.3493 25.928 87.112ZM59.464 85.448L64.008 87.24C62.7707 89.2453 61.448 91.336 60.04 93.512C58.6747 95.6453 57.3733 97.4373 56.136 98.888L52.552 97.352C53.32 96.2853 54.1307 95.0693 54.984 93.704C55.8373 92.296 56.648 90.8667 57.416 89.416C58.2267 87.9653 58.9093 86.6427 59.464 85.448ZM92.68 62.344H136.072V66.184H92.68V62.344ZM89.928 94.408H138.184V98.44H89.928V94.408ZM111.304 57.736H115.848V106.184H111.304V57.736ZM99.4 81.672V86.6H128.264V81.672H99.4ZM99.4 73.736V78.536H128.264V73.736H99.4ZM95.112 70.472H132.744V89.928H95.112V70.472ZM108.424 47.24H113.352V55.432H108.424V47.24ZM86.856 52.872H137.672V57.16H86.856V52.872ZM84.552 52.872H89.16V72.968C89.16 75.4427 89.0747 78.1093 88.904 80.968C88.776 83.8267 88.4773 86.7493 88.008 89.736C87.5813 92.7227 86.9413 95.624 86.088 98.44C85.2773 101.256 84.2107 103.837 82.888 106.184C82.5893 105.928 82.2053 105.608 81.736 105.224C81.2667 104.883 80.776 104.541 80.264 104.2C79.7947 103.901 79.368 103.667 78.984 103.496C80.264 101.32 81.2667 98.9307 81.992 96.328C82.76 93.7253 83.3147 91.0587 83.656 88.328C84.04 85.5973 84.2747 82.9307 84.36 80.328C84.488 77.6827 84.552 75.2293 84.552 72.968V52.872Z" fill="#2A0040"/>
</g>
<defs>
<filter id="filter0_d_109_17" x="11.368" y="47.176" width="130.816" height="67.0079" filterUnits="userSpaceOnUse" color-interpolation-filters="sRGB">
<feFlood flood-opacity="0" result="BackgroundImageFix"/>
<feColorMatrix in="SourceAlpha" type="matrix" values="0 0 0 0 0 0 0 0 0 0 0 0 0 0 0 0 0 0 127 0" result="hardAlpha"/>
<feOffset dy="4"/>
<feGaussianBlur stdDeviation="2"/>
<feComposite in2="hardAlpha" operator="out"/>
<feColorMatrix type="matrix" values="0 0 0 0 0 0 0 0 0 0 0 0 0 0 0 0 0 0 0.25 0"/>
<feBlend mode="normal" in2="BackgroundImageFix" result="effect1_dropShadow_109_17"/>
<feBlend mode="normal" in="SourceGraphic" in2="effect1_dropShadow_109_17" result="shape"/>
</filter>
</defs>
</svg>
